<mxfile host="app.diagrams.net" agent="Mozilla/5.0 (Windows NT 10.0; Win64; x64) AppleWebKit/537.36 (KHTML, like Gecko) Chrome/136.0.0.0 Safari/537.36" version="27.0.1">
  <diagram name="Page-1" id="Lpmpu0OVCcWrUfZRs6m8">
    <mxGraphModel dx="772" dy="483" grid="1" gridSize="10" guides="1" tooltips="1" connect="1" arrows="1" fold="1" page="1" pageScale="1" pageWidth="827" pageHeight="1169" math="0" shadow="0">
      <root>
        <mxCell id="0" />
        <mxCell id="1" parent="0" />
        <mxCell id="nYAVY8FeTcrVtfUFbqeo-1" value="" style="rounded=0;whiteSpace=wrap;html=1;" parent="1" vertex="1">
          <mxGeometry x="200" y="40" width="400" height="340" as="geometry" />
        </mxCell>
        <mxCell id="nYAVY8FeTcrVtfUFbqeo-2" value="&lt;b&gt;&lt;font style=&quot;font-size: 14px;&quot;&gt;Garda Station System&lt;/font&gt;&lt;/b&gt;" style="text;html=1;align=center;verticalAlign=middle;whiteSpace=wrap;rounded=0;" parent="1" vertex="1">
          <mxGeometry x="285" y="10" width="180" height="30" as="geometry" />
        </mxCell>
        <mxCell id="nYAVY8FeTcrVtfUFbqeo-3" value="&lt;b&gt;&lt;font style=&quot;font-size: 13px;&quot;&gt;User&lt;/font&gt;&lt;/b&gt;" style="shape=umlActor;verticalLabelPosition=bottom;verticalAlign=top;html=1;" parent="1" vertex="1">
          <mxGeometry x="120" y="180" width="30" height="60" as="geometry" />
        </mxCell>
        <mxCell id="nYAVY8FeTcrVtfUFbqeo-4" value="&lt;div&gt;Sort GardaÃ­ Alphabetically&lt;/div&gt;" style="ellipse;whiteSpace=wrap;html=1;" parent="1" vertex="1">
          <mxGeometry x="230" y="170" width="120" height="60" as="geometry" />
        </mxCell>
        <mxCell id="nYAVY8FeTcrVtfUFbqeo-5" value="&lt;div&gt;Validate List is not Empty&lt;/div&gt;" style="ellipse;whiteSpace=wrap;html=1;" parent="1" vertex="1">
          <mxGeometry x="414" y="60" width="120" height="60" as="geometry" />
        </mxCell>
        <mxCell id="nYAVY8FeTcrVtfUFbqeo-6" value="" style="endArrow=open;endFill=1;endSize=12;html=1;rounded=0;exitX=1;exitY=0;exitDx=0;exitDy=0;dashed=1;" parent="1" source="nYAVY8FeTcrVtfUFbqeo-4" target="nYAVY8FeTcrVtfUFbqeo-5" edge="1">
          <mxGeometry width="160" relative="1" as="geometry">
            <mxPoint x="320" y="230" as="sourcePoint" />
            <mxPoint x="480" y="230" as="targetPoint" />
          </mxGeometry>
        </mxCell>
        <mxCell id="nYAVY8FeTcrVtfUFbqeo-14" value="&lt;div&gt;&amp;lt;&amp;lt;include&amp;gt;&amp;gt;&lt;/div&gt;" style="edgeLabel;html=1;align=center;verticalAlign=middle;resizable=0;points=[];" parent="nYAVY8FeTcrVtfUFbqeo-6" vertex="1" connectable="0">
          <mxGeometry x="-0.0963" y="1" relative="1" as="geometry">
            <mxPoint as="offset" />
          </mxGeometry>
        </mxCell>
        <mxCell id="nYAVY8FeTcrVtfUFbqeo-7" value="Check Garda list size" style="rounded=1;whiteSpace=wrap;html=1;" parent="1" vertex="1">
          <mxGeometry x="414" y="185" width="150" height="30" as="geometry" />
        </mxCell>
        <mxCell id="nYAVY8FeTcrVtfUFbqeo-8" value="Apply Bubble Sort" style="rounded=1;whiteSpace=wrap;html=1;" parent="1" vertex="1">
          <mxGeometry x="414" y="250" width="150" height="30" as="geometry" />
        </mxCell>
        <mxCell id="nYAVY8FeTcrVtfUFbqeo-9" value="Show top 20 names" style="rounded=1;whiteSpace=wrap;html=1;" parent="1" vertex="1">
          <mxGeometry x="414" y="320" width="150" height="30" as="geometry" />
        </mxCell>
        <mxCell id="nYAVY8FeTcrVtfUFbqeo-10" value="" style="endArrow=classic;html=1;rounded=0;exitX=0.5;exitY=1;exitDx=0;exitDy=0;entryX=0.5;entryY=0;entryDx=0;entryDy=0;" parent="1" source="nYAVY8FeTcrVtfUFbqeo-7" target="nYAVY8FeTcrVtfUFbqeo-8" edge="1">
          <mxGeometry width="50" height="50" relative="1" as="geometry">
            <mxPoint x="380" y="260" as="sourcePoint" />
            <mxPoint x="430" y="210" as="targetPoint" />
          </mxGeometry>
        </mxCell>
        <mxCell id="nYAVY8FeTcrVtfUFbqeo-11" value="" style="endArrow=classic;html=1;rounded=0;exitX=0.5;exitY=1;exitDx=0;exitDy=0;entryX=0.5;entryY=0;entryDx=0;entryDy=0;" parent="1" source="nYAVY8FeTcrVtfUFbqeo-8" target="nYAVY8FeTcrVtfUFbqeo-9" edge="1">
          <mxGeometry width="50" height="50" relative="1" as="geometry">
            <mxPoint x="380" y="260" as="sourcePoint" />
            <mxPoint x="430" y="210" as="targetPoint" />
          </mxGeometry>
        </mxCell>
        <mxCell id="nYAVY8FeTcrVtfUFbqeo-12" value="" style="endArrow=classic;html=1;rounded=0;exitX=1;exitY=0.5;exitDx=0;exitDy=0;entryX=0;entryY=0.5;entryDx=0;entryDy=0;" parent="1" source="nYAVY8FeTcrVtfUFbqeo-4" target="nYAVY8FeTcrVtfUFbqeo-7" edge="1">
          <mxGeometry width="50" height="50" relative="1" as="geometry">
            <mxPoint x="380" y="260" as="sourcePoint" />
            <mxPoint x="430" y="210" as="targetPoint" />
          </mxGeometry>
        </mxCell>
        <mxCell id="nYAVY8FeTcrVtfUFbqeo-13" value="" style="endArrow=classic;html=1;rounded=0;exitX=1;exitY=0.3333333333333333;exitDx=0;exitDy=0;exitPerimeter=0;entryX=0;entryY=0.5;entryDx=0;entryDy=0;" parent="1" source="nYAVY8FeTcrVtfUFbqeo-3" target="nYAVY8FeTcrVtfUFbqeo-4" edge="1">
          <mxGeometry width="50" height="50" relative="1" as="geometry">
            <mxPoint x="380" y="260" as="sourcePoint" />
            <mxPoint x="430" y="210" as="targetPoint" />
          </mxGeometry>
        </mxCell>
      </root>
    </mxGraphModel>
  </diagram>
</mxfile>
